<?xml version="1.0" encoding="utf-8"?>
<!-- Generator: Adobe Illustrator 21.0.0, SVG Export Plug-In . SVG Version: 6.00 Build 0)  -->
<svg version="1.1" id="Layer_1" xmlns="http://www.w3.org/2000/svg" xmlns:xlink="http://www.w3.org/1999/xlink" x="0px" y="0px"
	 viewBox="0 0 512 512" style="enable-background:new 0 0 512 512;" xml:space="preserve">
<g>
	<path d="M440.3,231.7c-11.1-25-27.3-47.4-47.4-65.9l-16.7-15.3c-1.9-1.7-4.8-1.5-6.5,0.4c-0.4,0.4-0.7,1-0.9,1.5l-7.4,21.3
		c-4.6,13.4-13.2,27.1-25.2,40.5c-0.8,0.9-1.7,1.1-2.3,1.1c-0.6,0.1-1.6-0.1-2.5-0.9c-0.8-0.7-1.2-1.7-1.1-2.7
		c2.1-34.4-8.2-73.3-30.7-115.6c-18.7-35.1-44.6-62.5-77-81.7L198.8,0.6c-3.1-1.8-7,0.6-6.9,4.2l1.3,27.5
		c0.9,18.8-1.3,35.4-6.5,49.2c-6.3,16.9-15.3,32.6-26.9,46.6c-8,9.8-17.2,18.6-27.2,26.4C108.5,173,88.9,196.8,75.3,224
		c-13.6,27.4-20.7,57.7-20.7,88.3c0,27,5.3,53.2,15.9,77.8c10.2,23.7,24.8,45.3,43.2,63.5c18.5,18.3,40.1,32.7,64,42.7
		c24.8,10.4,51.2,15.7,78.3,15.7s53.5-5.3,78.3-15.6c23.9-10,45.7-24.5,64-42.7c18.5-18.3,33.1-39.7,43.2-63.5
		c10.5-24.6,15.9-51.1,15.9-77.8C457.4,284.4,451.7,257.3,440.3,231.7z"/>
</g>
</svg>
